<svg width="100" height="100" viewBox="0 0 100 100" fill="none" xmlns="http://www.w3.org/2000/svg">
  <circle cx="50" cy="50" r="45" stroke="#2563EB" stroke-width="5" fill="none" />
  <path d="M50 10C62.5 10 73.5 16 80 26C70 28.5 61 35 55 45C49 35 40 28.5 30 26C36.5 16 47.5 10 60 10H50Z" fill="#2563EB" />
  <path d="M15 60C15 45 27.5 33 42.5 33C57.5 33 70 45 70 60C70 75 57.5 87 42.5 87C27.5 87 15 75 15 60Z" fill="#2563EB" fill-opacity="0.5" />
  <path d="M62.5 35L80 25M62.5 35L72.5 47.5" stroke="#2563EB" stroke-width="5" stroke-linecap="round" stroke-linejoin="round" />
</svg>